# xmcd
#
# Track frame offsets:
#	182
#	18057
#	31345
#	52460
#	74102
#	96360
#	118567
#	153172
#	173552
#	195450
#	217525
#	234175
#	259162
#	279270
#
# Disc length: 4106 seconds
#
# Revision: 5
# Processed by: cddbd v1.5.2PL0 Copyright (c) Steve Scherf et al.
# Submitted via: VUPlayer 2.49
#
DISCID=b510080e
DTITLE=Pizzicato Five - The Fifth Release From Matador
DYEAR=2000
DGENRE=Jazz Funk
TTITLE0=A Perfect World
TTITLE1=Roma
TTITLE2=LOUDLAND!
TTITLE3=A Room With a View
TTITLE4=La guerre est finie
TTITLE5=Wild Strawberries
TTITLE6=Darlin' of discothèque
TTITLE7=A Perfect World [Album Version]
TTITLE8=20th Century Girl
TTITLE9=Tout, tout pour ma chérie
TTITLE10=Serial Stories
TTITLE11=The World Without You
TTITLE12=Room Service
TTITLE13=Goodbye Baby and Amen
EXTD=
EXTT0=
EXTT1=
EXTT2=
EXTT3=
EXTT4=
EXTT5=
EXTT6=
EXTT7=
EXTT8=
EXTT9=
EXTT10=
EXTT11=
EXTT12=
EXTT13=
PLAYORDER=
